<svg width="1005" height="787" viewBox="0 0 1005 787" fill="none" xmlns="http://www.w3.org/2000/svg">
<path d="M207.92 452H211.36V429.45C211.36 423.383 211.493 418.63 211.76 415.19C211.934 412.111 212.694 409.094 214 406.3C215.179 403.788 216.996 401.63 219.27 400.04C221.516 398.448 224.207 397.605 226.96 397.63C230.96 397.63 234.557 399.42 237.75 403C239.926 405.46 241.34 408.5 241.82 411.75C242.483 416.611 242.771 421.515 242.68 426.42V452H254.15C258.59 452 261.977 453.263 264.31 455.79C266.691 458.451 267.945 461.932 267.81 465.5C267.81 470.56 266.143 474.097 262.81 476.11C259.477 478.123 254.713 479.123 248.52 479.11H242.67V548.26C242.612 552.789 242.785 557.318 243.19 561.83C243.397 564.629 244.369 567.316 246 569.6C247.493 571.6 249.923 572.6 253.29 572.6C255.813 572.497 258.316 572.105 260.75 571.43C263.144 570.761 265.607 570.369 268.09 570.26C270.61 570.26 272.887 571.477 274.92 573.91C276.964 576.455 278.028 579.648 277.92 582.91C277.92 588.97 275.167 593.607 269.66 596.82C264.153 600.033 256.233 601.64 245.9 601.64C236.107 601.64 228.69 599.667 223.65 595.72C218.61 591.773 215.3 586.31 213.72 579.33C212.147 572.35 211.363 563.017 211.37 551.33V479.17H207.24C202.72 479.17 199.277 477.883 196.91 475.31C194.499 472.636 193.222 469.128 193.35 465.53C193.285 463.744 193.582 461.963 194.223 460.294C194.864 458.625 195.836 457.103 197.08 455.82C199.567 453.273 203.18 452 207.92 452Z" fill="white"/>
<path d="M318.3 606.31L321.16 597.9L282.61 481.37C280.237 474.703 279.05 469.837 279.05 466.77C279.026 463.665 279.735 460.599 281.12 457.82C282.414 455.165 284.37 452.888 286.8 451.21C288.988 449.63 291.611 448.764 294.31 448.73C298.83 448.73 302.237 450.453 304.53 453.9C306.823 457.347 308.85 462.28 310.61 468.7L337.11 561.27L362.24 475.18C363.757 469.625 365.556 464.152 367.63 458.78C369.24 454.84 370.94 452.17 372.74 450.78C374.54 449.39 377.08 448.71 380.37 448.71C382.829 448.745 385.216 449.546 387.2 451C389.404 452.552 391.148 454.67 392.25 457.13C393.425 459.679 394.029 462.453 394.02 465.26C393.72 467 393.223 469.48 392.53 472.7C391.837 475.92 390.993 479.18 390 482.48L349.16 610.85C345.64 622.15 342.197 631.013 338.83 637.44C335.802 643.494 331.184 648.61 325.47 652.24C319.917 655.693 312.44 657.417 303.04 657.41C293.86 657.41 286.973 656.217 282.38 653.83C277.787 651.443 275.493 647.08 275.5 640.74C275.5 636.42 276.59 633.087 278.77 630.74C280.95 628.393 284.18 627.22 288.46 627.22C290.141 627.222 291.811 627.502 293.4 628.05C295.076 628.554 296.811 628.833 298.56 628.88C302.15 628.88 304.99 628.23 307.05 626.95C309.465 625.258 311.385 622.952 312.61 620.27C314.816 615.749 316.717 611.085 318.3 606.31Z" fill="white"/>
<path d="M445.66 469.8V474.35C451.547 465.63 457.667 459.223 464.02 455.13C470.455 451.019 477.955 448.888 485.59 449C495.209 449.005 504.561 452.167 512.21 458C520.31 464 526.717 472.723 531.43 484.17C536.143 495.617 538.493 509.207 538.48 524.94C538.583 535.706 537.213 546.435 534.41 556.83C531.69 566.523 527.96 574.65 523.22 581.21C518.83 587.463 513.084 592.642 506.41 596.36C500.034 599.869 492.868 601.693 485.59 601.66C476.637 601.66 469.12 599.503 463.04 595.19C456.96 590.877 451.167 584.543 445.66 576.19V632.67C445.66 649.19 440.66 657.453 430.66 657.46C424.76 657.46 420.857 655.323 418.95 651.05C417.043 646.777 416.087 640.557 416.08 632.39V470.08C416.08 462.92 417.38 457.57 419.98 454.03C421.181 452.33 422.786 450.956 424.651 450.031C426.515 449.106 428.58 448.659 430.66 448.73C432.772 448.693 434.861 449.169 436.749 450.117C438.637 451.064 440.267 452.455 441.5 454.17C444.273 457.803 445.66 463.013 445.66 469.8ZM507 524.49C507 514.57 505.74 506.053 503.22 498.94C500.7 491.827 497.2 486.363 492.72 482.55C488.634 478.889 483.347 476.853 477.86 476.83C469.193 476.83 461.907 480.917 456 489.09C450.093 497.263 447.13 509.293 447.11 525.18C447.11 540.153 450.053 551.79 455.94 560.09C461.827 568.39 469.133 572.547 477.86 572.56C483.173 572.521 488.299 570.592 492.32 567.12C496.773 563.487 500.333 558.047 503 550.8C505.667 543.553 507 534.783 507 524.49Z" fill="white"/>
<path d="M594.93 470.08V578.76C594.93 586.287 593.44 591.98 590.46 595.84C589.172 597.646 587.466 599.115 585.488 600.121C583.511 601.127 581.319 601.642 579.1 601.62C576.889 601.646 574.707 601.118 572.752 600.084C570.797 599.05 569.133 597.543 567.91 595.7C565.044 591.747 563.61 586.1 563.61 578.76V471.18C563.61 463.74 565.044 458.14 567.91 454.38C569.175 452.599 570.856 451.154 572.806 450.169C574.756 449.185 576.916 448.691 579.1 448.73C581.307 448.701 583.488 449.198 585.464 450.181C587.439 451.164 589.152 452.603 590.46 454.38C593.44 458.127 594.93 463.36 594.93 470.08Z" fill="white"/>
<path d="M655.75 469.53V474.07C661.25 465.357 667.273 458.953 673.82 454.86C680.593 450.706 688.415 448.579 696.36 448.73C704.291 448.564 712.079 450.858 718.654 455.297C725.229 459.736 730.268 466.102 733.08 473.52C735.172 478.244 736.522 483.263 737.08 488.4C737.757 495.171 738.06 501.975 737.99 508.78V578.78C737.99 586.307 736.556 592 733.69 595.86C732.407 597.66 730.71 599.124 728.742 600.13C726.774 601.136 724.593 601.654 722.383 601.641C720.173 601.627 717.999 601.082 716.044 600.051C714.089 599.021 712.41 597.535 711.15 595.72C708.243 591.767 706.79 586.12 706.79 578.78V516.09C706.79 503.69 705.353 494.207 702.48 487.64C699.606 481.073 693.89 477.79 685.33 477.79C679.674 477.822 674.233 479.961 670.07 483.79C665.476 487.79 662.11 493.28 659.97 500.26C658.443 505.86 657.68 516.327 657.68 531.66V578.77C657.68 586.39 656.206 592.107 653.26 595.92C651.957 597.722 650.239 599.182 648.25 600.176C646.262 601.171 644.063 601.669 641.84 601.63C637.333 601.63 633.623 599.657 630.71 595.71C627.796 591.763 626.343 586.117 626.35 578.77V470.08C626.35 462.92 627.65 457.57 630.25 454.03C632.299 451.285 635.331 449.439 638.711 448.88C642.09 448.321 645.555 449.091 648.38 451.03C650.777 452.82 652.627 455.244 653.72 458.03C655.171 461.686 655.861 465.599 655.75 469.53Z" fill="white"/>
<path d="M884.42 476.28V585.51C884.42 598.003 883.313 608.747 881.1 617.74C878.887 626.733 875.327 634.17 870.42 640.05C865.319 646.071 858.68 650.596 851.21 653.14C843.29 655.98 833.44 657.403 821.66 657.41C811.756 657.585 801.92 655.745 792.75 652C784.25 648.373 777.71 643.69 773.13 637.95C768.55 632.21 766.253 626.31 766.24 620.25C766.066 616.147 767.46 612.132 770.14 609.02C771.295 607.651 772.736 606.553 774.362 605.803C775.988 605.053 777.759 604.67 779.55 604.68C784.137 604.68 788.153 607.113 791.6 611.98C793.28 614.46 795.02 616.963 796.82 619.49C798.526 621.902 800.543 624.078 802.82 625.96C805.136 627.827 807.817 629.189 810.69 629.96C814.129 630.881 817.68 631.322 821.24 631.27C829.347 631.27 835.64 629.917 840.12 627.21C844.481 624.627 847.808 620.608 849.53 615.84C851.351 610.816 852.413 605.548 852.68 600.21C852.98 594.65 853.21 585.72 853.37 573.42C848.55 581.5 842.983 587.65 836.67 591.87C830.357 596.09 822.843 598.203 814.13 598.21C804.113 598.377 794.367 594.958 786.65 588.57C778.803 582.143 772.78 573.143 768.58 561.57C764.38 549.997 762.273 536.637 762.26 521.49C762.137 511.168 763.433 500.879 766.11 490.91C768.294 482.618 772.026 474.815 777.11 467.91C781.435 462.02 787.043 457.192 793.51 453.79C799.813 450.589 806.791 448.947 813.86 449C822.727 449 830.413 451.04 836.92 455.12C843.427 459.2 849.47 465.607 855.05 474.34V469.24C855.05 462.72 856.383 457.67 859.05 454.09C860.199 452.416 861.743 451.051 863.544 450.115C865.346 449.178 867.35 448.699 869.38 448.72C875.42 448.72 879.437 451.083 881.43 455.81C883.423 460.537 884.42 467.36 884.42 476.28ZM793.66 523.94C793.66 539.18 796.433 550.703 801.98 558.51C807.527 566.317 814.7 570.22 823.5 570.22C828.823 570.184 833.993 568.43 838.24 565.22C842.867 561.887 846.633 556.837 849.54 550.07C852.447 543.303 853.9 535.107 853.9 525.48C853.9 510.147 851.09 498.21 845.47 489.67C839.85 481.13 832.45 476.86 823.27 476.86C814.323 476.86 807.15 480.947 801.75 489.12C796.35 497.293 793.653 508.9 793.66 523.94Z" fill="white"/>
<path d="M597.94 384.15C587.43 371.45 570.33 371.38 559.74 384C551.88 393.39 549.59 407.59 553.97 419.82C554.232 420.477 554.315 421.191 554.21 421.89L551.84 435.61C551.742 436.125 551.756 436.656 551.882 437.165C552.008 437.674 552.243 438.15 552.57 438.56C552.809 438.86 553.113 439.101 553.46 439.264C553.807 439.427 554.187 439.508 554.57 439.5H555.11L566.67 436.71C567.263 436.632 567.865 436.733 568.4 437C582.1 444.08 597.99 436.48 603.88 420C608.27 407.77 605.98 393.57 598.11 384.19L597.94 384.15ZM568 409.56C567.333 409.683 566.644 409.598 566.027 409.316C565.41 409.033 564.895 408.567 564.552 407.982C564.209 407.396 564.056 406.719 564.112 406.043C564.168 405.366 564.431 404.724 564.865 404.202C565.3 403.681 565.884 403.306 566.539 403.129C567.194 402.952 567.888 402.981 568.526 403.213C569.164 403.444 569.715 403.867 570.104 404.423C570.493 404.979 570.701 405.641 570.7 406.32C570.767 407.107 570.521 407.888 570.016 408.495C569.51 409.101 568.786 409.484 568 409.56ZM578.81 409.56C578.143 409.683 577.454 409.598 576.837 409.316C576.22 409.033 575.705 408.567 575.362 407.982C575.019 407.396 574.866 406.719 574.922 406.043C574.978 405.366 575.241 404.724 575.675 404.202C576.11 403.681 576.694 403.306 577.349 403.129C578.004 402.952 578.698 402.981 579.336 403.213C579.974 403.444 580.525 403.867 580.914 404.423C581.303 404.979 581.511 405.641 581.51 406.32C581.578 407.1 581.337 407.876 580.84 408.482C580.343 409.087 579.629 409.474 578.85 409.56H578.81ZM589.61 409.56C588.943 409.683 588.254 409.598 587.637 409.316C587.02 409.033 586.505 408.567 586.162 407.982C585.819 407.396 585.665 406.719 585.722 406.043C585.778 405.366 586.041 404.724 586.475 404.202C586.91 403.681 587.494 403.306 588.149 403.129C588.804 402.952 589.498 402.981 590.136 403.213C590.774 403.444 591.325 403.867 591.714 404.423C592.103 404.979 592.311 405.641 592.31 406.32C592.378 407.1 592.137 407.876 591.64 408.482C591.143 409.087 590.429 409.474 589.65 409.56H589.61Z" fill="white"/>
<path d="M534.25 142.81H393.86C393.04 137.18 388.95 132.89 384.02 132.89C384.02 126.26 379.55 120.89 374.02 120.89H351C349.458 120.845 347.974 120.293 346.779 119.318C345.584 118.343 344.744 117.001 344.39 115.5C342.93 109.97 346.33 104.89 350.72 104.89H410.22C416.63 104.89 422.53 99.73 423.78 92.19C425.5 81.9 418.99 72.87 410.72 72.87H387.36C385.52 72.87 384.02 71.08 384.02 68.87V64.87C384.02 62.66 382.53 60.87 380.69 60.87C378.85 60.87 377.36 62.66 377.36 64.87V72.13C377.36 76.97 380.62 80.88 384.64 80.88H411.64C412.47 80.8886 413.285 81.1136 414.002 81.5327C414.719 81.9518 415.315 82.5506 415.73 83.27C419.67 89.8 415.87 96.89 410.73 96.89H351.23C344.82 96.89 338.93 102.05 337.67 109.59C335.95 119.88 342.46 128.91 350.73 128.91H374C375.84 128.91 377.34 130.7 377.34 132.91C372.41 132.91 368.34 137.2 367.5 142.83H227.13C213.13 142.83 201.84 156.42 201.84 173.18V341.75C201.84 358.52 213.16 372.1 227.13 372.1H534.25C548.25 372.1 559.54 358.52 559.54 341.75V173.16C559.54 156.4 548.22 142.81 534.25 142.81Z" fill="white"/>
<path d="M211.37 345H548.22V346.82C548.22 351.859 546.218 356.692 542.655 360.255C539.092 363.818 534.259 365.82 529.22 365.82H230.39C225.351 365.82 220.518 363.818 216.955 360.255C213.392 356.692 211.39 351.859 211.39 346.82V345H211.37Z" fill="#FFC907"/>
<path d="M377.16 136.56H384.16C386.237 136.56 388.228 137.385 389.697 138.853C391.165 140.322 391.99 142.313 391.99 144.39V150.46H369.38V144.35C369.38 142.286 370.199 140.306 371.658 138.845C373.117 137.385 375.096 136.563 377.16 136.56Z" fill="#FFC907"/>
<path d="M247.403 271.81L233.984 218.474V276.264C233.984 279.462 233.261 281.86 231.814 283.459C230.405 285.058 228.521 285.858 226.161 285.858C223.876 285.858 222.011 285.077 220.564 283.516C219.118 281.917 218.394 279.5 218.394 276.264V210.023C218.394 206.368 219.346 203.913 221.25 202.656C223.153 201.362 225.723 200.715 228.959 200.715H234.212C237.372 200.715 239.656 201 241.065 201.571C242.511 202.142 243.577 203.17 244.263 204.655C244.948 206.14 245.728 208.557 246.604 211.907L258.767 257.762L270.93 211.907C271.806 208.557 272.587 206.14 273.272 204.655C273.957 203.17 275.004 202.142 276.413 201.571C277.859 201 280.162 200.715 283.322 200.715H288.576C291.812 200.715 294.381 201.362 296.285 202.656C298.188 203.913 299.14 206.368 299.14 210.023V276.264C299.14 279.462 298.417 281.86 296.97 283.459C295.562 285.058 293.658 285.858 291.26 285.858C289.014 285.858 287.167 285.058 285.721 283.459C284.274 281.86 283.551 279.462 283.551 276.264V218.474L270.131 271.81C269.255 275.274 268.532 277.825 267.961 279.462C267.428 281.061 266.419 282.526 264.935 283.859C263.45 285.191 261.394 285.858 258.767 285.858C256.788 285.858 255.113 285.42 253.742 284.544C252.372 283.707 251.306 282.622 250.544 281.289C249.783 279.957 249.174 278.491 248.717 276.892C248.298 275.255 247.86 273.561 247.403 271.81ZM349.049 251.823H333.517V275.522C333.517 278.91 332.718 281.48 331.119 283.231C329.52 284.982 327.502 285.858 325.066 285.858C322.515 285.858 320.459 285.001 318.898 283.288C317.337 281.537 316.557 278.986 316.557 275.636V211.108C316.557 207.377 317.414 204.712 319.127 203.113C320.84 201.514 323.562 200.715 327.293 200.715H349.049C355.483 200.715 360.432 201.21 363.897 202.199C367.323 203.151 370.273 204.731 372.748 206.939C375.26 209.147 377.164 211.85 378.458 215.048C379.753 218.246 380.4 221.843 380.4 225.841C380.4 234.368 377.773 240.84 372.519 245.256C367.266 249.634 359.442 251.823 349.049 251.823ZM344.938 213.449H333.517V239.032H344.938C348.935 239.032 352.266 238.613 354.931 237.776C357.634 236.938 359.69 235.568 361.098 233.664C362.507 231.761 363.211 229.267 363.211 226.183C363.211 222.491 362.126 219.483 359.956 217.161C357.52 214.686 352.514 213.449 344.938 213.449ZM458.176 259.304C458.176 264.367 456.863 268.917 454.236 272.952C451.647 276.987 447.84 280.147 442.815 282.431C437.79 284.715 431.832 285.858 424.941 285.858C416.68 285.858 409.866 284.297 404.498 281.175C400.691 278.929 397.588 275.94 395.19 272.21C392.83 268.441 391.649 264.786 391.649 261.246C391.649 259.19 392.354 257.439 393.762 255.992C395.209 254.507 397.036 253.765 399.244 253.765C401.034 253.765 402.537 254.336 403.756 255.478C405.012 256.62 406.078 258.314 406.953 260.56C408.019 263.225 409.161 265.452 410.38 267.241C411.636 269.031 413.387 270.515 415.633 271.696C417.879 272.838 420.83 273.409 424.484 273.409C429.51 273.409 433.583 272.248 436.705 269.925C439.865 267.565 441.444 264.634 441.444 261.131C441.444 258.352 440.588 256.106 438.875 254.393C437.2 252.642 435.011 251.309 432.308 250.396C429.643 249.482 426.064 248.511 421.572 247.483C415.557 246.075 410.513 244.438 406.439 242.572C402.404 240.669 399.187 238.099 396.789 234.863C394.428 231.589 393.248 227.535 393.248 222.7C393.248 218.094 394.505 214.001 397.017 210.423C399.53 206.844 403.165 204.103 407.924 202.199C412.683 200.258 418.279 199.287 424.713 199.287C429.852 199.287 434.287 199.934 438.018 201.229C441.787 202.485 444.909 204.179 447.383 206.311C449.858 208.405 451.666 210.613 452.808 212.935C453.95 215.257 454.521 217.523 454.521 219.731C454.521 221.748 453.798 223.576 452.351 225.213C450.943 226.812 449.173 227.611 447.041 227.611C445.099 227.611 443.614 227.135 442.587 226.183C441.597 225.194 440.512 223.595 439.332 221.387C437.809 218.227 435.981 215.771 433.85 214.02C431.718 212.231 428.291 211.336 423.571 211.336C419.193 211.336 415.652 212.307 412.949 214.249C410.284 216.152 408.952 218.455 408.952 221.158C408.952 222.833 409.409 224.28 410.323 225.498C411.236 226.716 412.493 227.763 414.091 228.639C415.69 229.514 417.308 230.2 418.945 230.695C420.582 231.19 423.285 231.913 427.054 232.865C431.775 233.969 436.039 235.187 439.846 236.519C443.691 237.852 446.946 239.47 449.61 241.373C452.313 243.277 454.407 245.694 455.892 248.625C457.415 251.519 458.176 255.078 458.176 259.304ZM543.89 257.991C543.89 260.655 543.224 263.549 541.891 266.67C540.597 269.754 538.541 272.8 535.724 275.807C532.907 278.777 529.309 281.194 524.931 283.059C520.553 284.925 515.452 285.858 509.627 285.858C505.211 285.858 501.195 285.439 497.578 284.601C493.962 283.764 490.669 282.469 487.699 280.718C484.768 278.929 482.065 276.588 479.59 273.694C477.382 271.067 475.498 268.136 473.937 264.9C472.376 261.626 471.196 258.143 470.396 254.45C469.635 250.757 469.254 246.836 469.254 242.687C469.254 235.948 470.225 229.914 472.167 224.584C474.146 219.255 476.963 214.705 480.618 210.936C484.273 207.129 488.556 204.236 493.467 202.257C498.378 200.277 503.612 199.287 509.17 199.287C515.947 199.287 521.981 200.639 527.273 203.342C532.564 206.045 536.619 209.395 539.436 213.392C542.253 217.351 543.662 221.101 543.662 224.642C543.662 226.583 542.976 228.296 541.606 229.781C540.235 231.266 538.579 232.008 536.638 232.008C534.468 232.008 532.831 231.494 531.727 230.466C530.661 229.438 529.462 227.668 528.129 225.155C525.921 221.006 523.313 217.903 520.306 215.847C517.336 213.792 513.663 212.764 509.285 212.764C502.318 212.764 496.76 215.41 492.61 220.701C488.499 225.993 486.443 233.512 486.443 243.258C486.443 249.768 487.357 255.192 489.184 259.532C491.011 263.834 493.6 267.051 496.95 269.183C500.3 271.315 504.221 272.381 508.714 272.381C513.587 272.381 517.698 271.182 521.048 268.783C524.436 266.347 526.987 262.787 528.7 258.105C529.423 255.897 530.318 254.107 531.384 252.737C532.45 251.328 534.163 250.624 536.523 250.624C538.541 250.624 540.273 251.328 541.72 252.737C543.167 254.146 543.89 255.897 543.89 257.991Z" fill="#FFC907"/>
</svg>
